
<svg width="508px" height="397px" viewBox="0 0 508 397" version="1.1" xmlns="http://www.w3.org/2000/svg" xmlns:xlink="http://www.w3.org/1999/xlink">
    <!-- Generator: Sketch 48.1 (47250) - http://www.bohemiancoding.com/sketch -->
    <desc>Created with Sketch.</desc>
    <defs></defs>
    <g id="Version-3" stroke="none" stroke-width="1" fill="none" fill-rule="evenodd" opacity="0.549999976">
        <g id="Landing-Page" transform="translate(0.000000, -2054.000000)" stroke="#111966" stroke-width="2">
            <g id="Group-5" transform="translate(720.910015, 2330.189432) rotate(0.650000) translate(-720.910015, -2330.189432) translate(-0.589985, 2056.189432)">
                <g id="Group-6-Copy" opacity="0.239999995" transform="translate(0.112756, 6.585277)">
                    <path d="M7.10542736e-15,378.19687 L-1.42108547e-14,378.19687 C24.2462028,365.11823 53.4461049,365.11823 77.6923077,378.19687 L77.6923077,378.19687 C101.938511,391.275509 131.138413,391.275509 155.384615,378.19687 L155.384615,378.19687 C179.630818,365.11823 208.83072,365.11823 233.076923,378.19687 L233.076923,378.19687 C257.323126,391.275509 286.523028,391.275509 310.769231,378.19687 L310.769231,378.19687 C335.015434,365.11823 364.215336,365.11823 388.461538,378.19687 L388.461538,378.19687 C413.200641,391.541384 442.424001,393.820734 468.933009,384.473447 L505,371.755938" id="Path-2" transform="translate(252.500000, 379.267222) rotate(-360.000000) translate(-252.500000, -379.267222) "></path>
                    <path d="M7.10542736e-15,356.19687 L-2.13162821e-14,356.19687 C24.2462028,343.11823 53.4461049,343.11823 77.6923077,356.19687 L77.6923077,356.19687 C101.938511,369.275509 131.138413,369.275509 155.384615,356.19687 L155.384615,356.19687 C179.630818,343.11823 208.83072,343.11823 233.076923,356.19687 L233.076923,356.19687 C257.323126,369.275509 286.523028,369.275509 310.769231,356.19687 L310.769231,356.19687 C335.015434,343.11823 364.215336,343.11823 388.461538,356.19687 L388.461538,356.19687 C413.200641,369.541384 442.424001,371.820734 468.933009,362.473447 L505,349.755938" id="Path-2-Copy" transform="translate(252.500000, 357.267222) rotate(-360.000000) translate(-252.500000, -357.267222) "></path>
                    <path d="M7.10542736e-15,333.19687 L-1.42108547e-14,333.19687 C24.2462028,320.11823 53.4461049,320.11823 77.6923077,333.19687 L77.6923077,333.19687 C101.938511,346.275509 131.138413,346.275509 155.384615,333.19687 L155.384615,333.19687 C179.630818,320.11823 208.83072,320.11823 233.076923,333.19687 L233.076923,333.19687 C257.323126,346.275509 286.523028,346.275509 310.769231,333.19687 L310.769231,333.19687 C335.015434,320.11823 364.215336,320.11823 388.461538,333.19687 L388.461538,333.19687 C413.200641,346.541384 442.424001,348.820734 468.933009,339.473447 L505,326.755938" id="Path-2-Copy-2" transform="translate(252.500000, 334.267222) rotate(-360.000000) translate(-252.500000, -334.267222) "></path>
                    <path d="M7.10542736e-15,311.19687 L-4.26325641e-14,311.19687 C24.2462028,298.11823 53.4461049,298.11823 77.6923077,311.19687 L77.6923077,311.19687 C101.938511,324.275509 131.138413,324.275509 155.384615,311.19687 L155.384615,311.19687 C179.630818,298.11823 208.83072,298.11823 233.076923,311.19687 L233.076923,311.19687 C257.323126,324.275509 286.523028,324.275509 310.769231,311.19687 L310.769231,311.19687 C335.015434,298.11823 364.215336,298.11823 388.461538,311.19687 L388.461538,311.19687 C413.200641,324.541384 442.424001,326.820734 468.933009,317.473447 L505,304.755938" id="Path-2-Copy-3" transform="translate(252.500000, 312.267222) rotate(-360.000000) translate(-252.500000, -312.267222) "></path>
                    <path d="M7.10542736e-15,288.19687 L1.42108547e-14,288.19687 C24.2462028,275.11823 53.4461049,275.11823 77.6923077,288.19687 L77.6923077,288.19687 C101.938511,301.275509 131.138413,301.275509 155.384615,288.19687 L155.384615,288.19687 C179.630818,275.11823 208.83072,275.11823 233.076923,288.19687 L233.076923,288.19687 C257.323126,301.275509 286.523028,301.275509 310.769231,288.19687 L310.769231,288.19687 C335.015434,275.11823 364.215336,275.11823 388.461538,288.19687 L388.461538,288.19687 C413.200641,301.541384 442.424001,303.820734 468.933009,294.473447 L505,281.755938" id="Path-2-Copy-4" transform="translate(252.500000, 289.267222) rotate(-360.000000) translate(-252.500000, -289.267222) "></path>
                    <path d="M7.10542736e-15,265.19687 L-4.26325641e-14,265.19687 C24.2462028,252.11823 53.4461049,252.11823 77.6923077,265.19687 L77.6923077,265.19687 C101.938511,278.275509 131.138413,278.275509 155.384615,265.19687 L155.384615,265.19687 C179.630818,252.11823 208.83072,252.11823 233.076923,265.19687 L233.076923,265.19687 C257.323126,278.275509 286.523028,278.275509 310.769231,265.19687 L310.769231,265.19687 C335.015434,252.11823 364.215336,252.11823 388.461538,265.19687 L388.461538,265.19687 C413.200641,278.541384 442.424001,280.820734 468.933009,271.473447 L505,258.755938" id="Path-2-Copy-5" transform="translate(252.500000, 266.267222) rotate(-360.000000) translate(-252.500000, -266.267222) "></path>
                    <path d="M7.10542736e-15,241.19687 L-4.26325641e-14,241.19687 C24.2462028,228.11823 53.4461049,228.11823 77.6923077,241.19687 L77.6923077,241.19687 C101.938511,254.275509 131.138413,254.275509 155.384615,241.19687 L155.384615,241.19687 C179.630818,228.11823 208.83072,228.11823 233.076923,241.19687 L233.076923,241.19687 C257.323126,254.275509 286.523028,254.275509 310.769231,241.19687 L310.769231,241.19687 C335.015434,228.11823 364.215336,228.11823 388.461538,241.19687 L388.461538,241.19687 C413.200641,254.541384 442.424001,256.820734 468.933009,247.473447 L505,234.755938" id="Path-2-Copy-6" transform="translate(252.500000, 242.267222) rotate(-360.000000) translate(-252.500000, -242.267222) "></path>
                    <path d="M7.10542736e-15,218.19687 L0,218.19687 C24.2462028,205.11823 53.4461049,205.11823 77.6923077,218.19687 L77.6923077,218.19687 C101.938511,231.275509 131.138413,231.275509 155.384615,218.19687 L155.384615,218.19687 C179.630818,205.11823 208.83072,205.11823 233.076923,218.19687 L233.076923,218.19687 C257.323126,231.275509 286.523028,231.275509 310.769231,218.19687 L310.769231,218.19687 C335.015434,205.11823 364.215336,205.11823 388.461538,218.19687 L388.461538,218.19687 C413.200641,231.541384 442.424001,233.820734 468.933009,224.473447 L505,211.755938" id="Path-2-Copy-7" transform="translate(252.500000, 219.267222) rotate(-360.000000) translate(-252.500000, -219.267222) "></path>
                    <path d="M7.10542736e-15,192.19687 L0,192.19687 C24.2462028,179.11823 53.4461049,179.11823 77.6923077,192.19687 L77.6923077,192.19687 C101.938511,205.275509 131.138413,205.275509 155.384615,192.19687 L155.384615,192.19687 C179.630818,179.11823 208.83072,179.11823 233.076923,192.19687 L233.076923,192.19687 C257.323126,205.275509 286.523028,205.275509 310.769231,192.19687 L310.769231,192.19687 C335.015434,179.11823 364.215336,179.11823 388.461538,192.19687 L388.461538,192.19687 C413.200641,205.541384 442.424001,207.820734 468.933009,198.473447 L505,185.755938" id="Path-2-Copy-8" transform="translate(252.500000, 193.267222) rotate(-360.000000) translate(-252.500000, -193.267222) "></path>
                    <path d="M7.10542736e-15,166.19687 L0,166.19687 C24.2462028,153.11823 53.4461049,153.11823 77.6923077,166.19687 L77.6923077,166.19687 C101.938511,179.275509 131.138413,179.275509 155.384615,166.19687 L155.384615,166.19687 C179.630818,153.11823 208.83072,153.11823 233.076923,166.19687 L233.076923,166.19687 C257.323126,179.275509 286.523028,179.275509 310.769231,166.19687 L310.769231,166.19687 C335.015434,153.11823 364.215336,153.11823 388.461538,166.19687 L388.461538,166.19687 C413.200641,179.541384 442.424001,181.820734 468.933009,172.473447 L505,159.755938" id="Path-2-Copy-9" transform="translate(252.500000, 167.267222) rotate(-360.000000) translate(-252.500000, -167.267222) "></path>
                    <path d="M7.10542736e-15,140.19687 L0,140.19687 C24.2462028,127.11823 53.4461049,127.11823 77.6923077,140.19687 L77.6923077,140.19687 C101.938511,153.275509 131.138413,153.275509 155.384615,140.19687 L155.384615,140.19687 C179.630818,127.11823 208.83072,127.11823 233.076923,140.19687 L233.076923,140.19687 C257.323126,153.275509 286.523028,153.275509 310.769231,140.19687 L310.769231,140.19687 C335.015434,127.11823 364.215336,127.11823 388.461538,140.19687 L388.461538,140.19687 C413.200641,153.541384 442.424001,155.820734 468.933009,146.473447 L505,133.755938" id="Path-2-Copy-10" transform="translate(252.500000, 141.267222) rotate(-360.000000) translate(-252.500000, -141.267222) "></path>
                    <path d="M7.10542736e-15,114.19687 L0,114.19687 C24.2462028,101.11823 53.4461049,101.11823 77.6923077,114.19687 L77.6923077,114.19687 C101.938511,127.275509 131.138413,127.275509 155.384615,114.19687 L155.384615,114.19687 C179.630818,101.11823 208.83072,101.11823 233.076923,114.19687 L233.076923,114.19687 C257.323126,127.275509 286.523028,127.275509 310.769231,114.19687 L310.769231,114.19687 C335.015434,101.11823 364.215336,101.11823 388.461538,114.19687 L388.461538,114.19687 C413.200641,127.541384 442.424001,129.820734 468.933009,120.473447 L505,107.755938" id="Path-2-Copy-11" transform="translate(252.500000, 115.267222) rotate(-360.000000) translate(-252.500000, -115.267222) "></path>
                    <path d="M7.10542736e-15,88.1968696 L0,88.1968696 C24.2462028,75.1182302 53.4461049,75.1182302 77.6923077,88.1968696 L77.6923077,88.1968696 C101.938511,101.275509 131.138413,101.275509 155.384615,88.1968696 L155.384615,88.1968696 C179.630818,75.1182302 208.83072,75.1182302 233.076923,88.1968696 L233.076923,88.1968696 C257.323126,101.275509 286.523028,101.275509 310.769231,88.1968696 L310.769231,88.1968696 C335.015434,75.1182302 364.215336,75.1182302 388.461538,88.1968696 L388.461538,88.1968696 C413.200641,101.541384 442.424001,103.820734 468.933009,94.4734467 L505,81.7559377" id="Path-2-Copy-12" transform="translate(252.500000, 89.267222) rotate(-360.000000) translate(-252.500000, -89.267222) "></path>
                    <path d="M7.10542736e-15,62.1968696 L0,62.1968696 C24.2462028,49.1182302 53.4461049,49.1182302 77.6923077,62.1968696 L77.6923077,62.1968696 C101.938511,75.2755091 131.138413,75.2755091 155.384615,62.1968696 L155.384615,62.1968696 C179.630818,49.1182302 208.83072,49.1182302 233.076923,62.1968696 L233.076923,62.1968696 C257.323126,75.2755091 286.523028,75.2755091 310.769231,62.1968696 L310.769231,62.1968696 C335.015434,49.1182302 364.215336,49.1182302 388.461538,62.1968696 L388.461538,62.1968696 C413.200641,75.5413842 442.424001,77.8207345 468.933009,68.4734467 L505,55.7559377" id="Path-2-Copy-13" transform="translate(252.500000, 63.267222) rotate(-360.000000) translate(-252.500000, -63.267222) "></path>
                    <path d="M7.10542736e-15,36.1968696 L0,36.1968696 C24.2462028,23.1182302 53.4461049,23.1182302 77.6923077,36.1968696 L77.6923077,36.1968696 C101.938511,49.2755091 131.138413,49.2755091 155.384615,36.1968696 L155.384615,36.1968696 C179.630818,23.1182302 208.83072,23.1182302 233.076923,36.1968696 L233.076923,36.1968696 C257.323126,49.2755091 286.523028,49.2755091 310.769231,36.1968696 L310.769231,36.1968696 C335.015434,23.1182302 364.215336,23.1182302 388.461538,36.1968696 L388.461538,36.1968696 C413.200641,49.5413842 442.424001,51.8207345 468.933009,42.4734467 L505,29.7559377" id="Path-2-Copy-14" transform="translate(252.500000, 37.267222) rotate(-360.000000) translate(-252.500000, -37.267222) "></path>
                    <path d="M7.10542736e-15,10.1968696 L0,10.1968696 C24.2462028,-2.88176976 53.4461049,-2.88176976 77.6923077,10.1968696 L77.6923077,10.1968696 C101.938511,23.2755091 131.138413,23.2755091 155.384615,10.1968696 L155.384615,10.1968696 C179.630818,-2.88176976 208.83072,-2.88176976 233.076923,10.1968696 L233.076923,10.1968696 C257.323126,23.2755091 286.523028,23.2755091 310.769231,10.1968696 L310.769231,10.1968696 C335.015434,-2.88176976 364.215336,-2.88176976 388.461538,10.1968696 L388.461538,10.1968696 C413.200641,23.5413842 442.424001,25.8207345 468.933009,16.4734467 L505,3.75593766" id="Path-2-Copy-15" transform="translate(252.500000, 11.267222) rotate(-360.000000) translate(-252.500000, -11.267222) "></path>
                </g>
            </g>
        </g>
    </g>
</svg>
