<svg width="713px" height="223px" viewBox="0 0 713 223" version="1.1" xmlns="http://www.w3.org/2000/svg" xmlns:xlink="http://www.w3.org/1999/xlink">
    <!-- Generator: Sketch 48.1 (47250) - http://www.bohemiancoding.com/sketch -->
    <desc>Created with Sketch.</desc>
    <defs></defs>
    <g id="Version-3" stroke="none" stroke-width="1" fill="none" fill-rule="evenodd">
        <g id="Landing-Page" transform="translate(-578.000000, -693.000000)" stroke="#111966" stroke-width="2">
            <g id="Group-6" transform="translate(579.000000, 694.000000)">
                <path d="M7.10542736e-15,202.287053 L13.9048649,196.075441 C39.8604294,184.480512 69.524186,184.480512 95.4797505,196.075441 L123.28948,208.498666 C149.245045,220.093595 178.908801,220.093595 204.864366,208.498666 L232.674096,196.075441 C258.62966,184.480512 288.293417,184.480512 314.248981,196.075441 L342.058711,208.498666 C368.014276,220.093595 397.678032,220.093595 423.633597,208.498666 L451.443326,196.075441 C477.398891,184.480512 507.062648,184.480512 533.018212,196.075441 L568.067188,211.732599 C589.724798,221.407536 614.116377,223.0688 636.885787,216.419703 L711,194.776954" id="Path-2" transform="translate(355.500000, 203.904046) rotate(-360.000000) translate(-355.500000, -203.904046) "></path>
                <path d="M7.10542736e-15,176.287053 L13.9048649,170.075441 C39.8604294,158.480512 69.524186,158.480512 95.4797505,170.075441 L123.28948,182.498666 C149.245045,194.093595 178.908801,194.093595 204.864366,182.498666 L232.674096,170.075441 C258.62966,158.480512 288.293417,158.480512 314.248981,170.075441 L342.058711,182.498666 C368.014276,194.093595 397.678032,194.093595 423.633597,182.498666 L451.443326,170.075441 C477.398891,158.480512 507.062648,158.480512 533.018212,170.075441 L568.067188,185.732599 C589.724798,195.407536 614.116377,197.0688 636.885787,190.419703 L711,168.776954" id="Path-2-Copy" transform="translate(355.500000, 177.904046) rotate(-360.000000) translate(-355.500000, -177.904046) "></path>
                <path d="M7.10542736e-15,149.287053 L13.9048649,143.075441 C39.8604294,131.480512 69.524186,131.480512 95.4797505,143.075441 L123.28948,155.498666 C149.245045,167.093595 178.908801,167.093595 204.864366,155.498666 L232.674096,143.075441 C258.62966,131.480512 288.293417,131.480512 314.248981,143.075441 L342.058711,155.498666 C368.014276,167.093595 397.678032,167.093595 423.633597,155.498666 L451.443326,143.075441 C477.398891,131.480512 507.062648,131.480512 533.018212,143.075441 L568.067188,158.732599 C589.724798,168.407536 614.116377,170.0688 636.885787,163.419703 L711,141.776954" id="Path-2-Copy-2" transform="translate(355.500000, 150.904046) rotate(-360.000000) translate(-355.500000, -150.904046) "></path>
                <path d="M7.10542736e-15,123.287053 L13.9048649,117.075441 C39.8604294,105.480512 69.524186,105.480512 95.4797505,117.075441 L123.28948,129.498666 C149.245045,141.093595 178.908801,141.093595 204.864366,129.498666 L232.674096,117.075441 C258.62966,105.480512 288.293417,105.480512 314.248981,117.075441 L342.058711,129.498666 C368.014276,141.093595 397.678032,141.093595 423.633597,129.498666 L451.443326,117.075441 C477.398891,105.480512 507.062648,105.480512 533.018212,117.075441 L568.067188,132.732599 C589.724798,142.407536 614.116377,144.0688 636.885787,137.419703 L711,115.776954" id="Path-2-Copy-3" transform="translate(355.500000, 124.904046) rotate(-360.000000) translate(-355.500000, -124.904046) "></path>
                <path d="M7.10542736e-15,96.2870535 L13.9048649,90.0754406 C39.8604294,78.4805118 69.524186,78.4805118 95.4797505,90.0754406 L123.28948,102.498666 C149.245045,114.093595 178.908801,114.093595 204.864366,102.498666 L232.674096,90.0754406 C258.62966,78.4805118 288.293417,78.4805118 314.248981,90.0754406 L342.058711,102.498666 C368.014276,114.093595 397.678032,114.093595 423.633597,102.498666 L451.443326,90.0754406 C477.398891,78.4805118 507.062648,78.4805118 533.018212,90.0754406 L568.067188,105.732599 C589.724798,115.407536 614.116377,117.0688 636.885787,110.419703 L711,88.7769536" id="Path-2-Copy-4" transform="translate(355.500000, 97.904046) rotate(-360.000000) translate(-355.500000, -97.904046) "></path>
                <path d="M7.10542736e-15,69.2870535 L13.9048649,63.0754406 C39.8604294,51.4805118 69.524186,51.4805118 95.4797505,63.0754406 L123.28948,75.4986664 C149.245045,87.0935952 178.908801,87.0935952 204.864366,75.4986664 L232.674096,63.0754406 C258.62966,51.4805118 288.293417,51.4805118 314.248981,63.0754406 L342.058711,75.4986664 C368.014276,87.0935952 397.678032,87.0935952 423.633597,75.4986664 L451.443326,63.0754406 C477.398891,51.4805118 507.062648,51.4805118 533.018212,63.0754406 L568.067188,78.7325987 C589.724798,88.4075357 614.116377,90.0687998 636.885787,83.4197025 L711,61.7769536" id="Path-2-Copy-5" transform="translate(355.500000, 70.904046) rotate(-360.000000) translate(-355.500000, -70.904046) "></path>
                <path d="M7.10542736e-15,42.2870535 L13.9048649,36.0754406 C39.8604294,24.4805118 69.524186,24.4805118 95.4797505,36.0754406 L123.28948,48.4986664 C149.245045,60.0935952 178.908801,60.0935952 204.864366,48.4986664 L232.674096,36.0754406 C258.62966,24.4805118 288.293417,24.4805118 314.248981,36.0754406 L342.058711,48.4986664 C368.014276,60.0935952 397.678032,60.0935952 423.633597,48.4986664 L451.443326,36.0754406 C477.398891,24.4805118 507.062648,24.4805118 533.018212,36.0754406 L568.067188,51.7325987 C589.724798,61.4075357 614.116377,63.0687998 636.885787,56.4197025 L711,34.7769536" id="Path-2-Copy-6" transform="translate(355.500000, 43.904046) rotate(-360.000000) translate(-355.500000, -43.904046) "></path>
                <path d="M7.10542736e-15,15.2870535 L13.9048649,9.07544058 C39.8604294,-2.51948824 69.524186,-2.51948824 95.4797505,9.07544058 L123.28948,21.4986664 C149.245045,33.0935952 178.908801,33.0935952 204.864366,21.4986664 L232.674096,9.07544058 C258.62966,-2.51948824 288.293417,-2.51948824 314.248981,9.07544058 L342.058711,21.4986664 C368.014276,33.0935952 397.678032,33.0935952 423.633597,21.4986664 L451.443326,9.07544058 C477.398891,-2.51948824 507.062648,-2.51948824 533.018212,9.07544058 L568.067188,24.7325987 C589.724798,34.4075357 614.116377,36.0687998 636.885787,29.4197025 L711,7.7769536" id="Path-2-Copy-7" transform="translate(355.500000, 16.904046) rotate(-360.000000) translate(-355.500000, -16.904046) "></path>
            </g>
        </g>
    </g>
</svg>
