<?xml version="1.0" encoding="UTF-8"?>
<svg width="360px" height="166px" viewBox="0 0 360 166" version="1.1" xmlns="http://www.w3.org/2000/svg" xmlns:xlink="http://www.w3.org/1999/xlink">
    <!-- Generator: Sketch 47.1 (45422) - http://www.bohemiancoding.com/sketch -->
    <title>Group 6</title>
    <desc>Created with Sketch.</desc>
    <defs></defs>
    <g id="Version-3" stroke="none" stroke-width="1" fill="none" fill-rule="evenodd" stroke-opacity="0.3">
        <g id="Login" transform="translate(0.000000, -474.000000)" stroke="#111966">
            <g id="Group-6" transform="translate(180.457170, 597.663230) rotate(-345.000000) translate(-180.457170, -597.663230) translate(-59.542830, 525.663230)">
                <path d="M0,133.758676 L0,133.758676 L2.13162821e-14,133.758676 C23.5169987,123.359216 50.3291551,123.359216 73.8461538,133.758676 L73.8461538,133.758676 L73.8461538,133.758676 C97.3631526,144.158135 124.175309,144.158135 147.692308,133.758676 L147.692308,133.758676 L147.692308,133.758676 C171.209306,123.359216 198.021463,123.359216 221.538462,133.758676 L221.538462,133.758676 L221.538462,133.758676 C245.05546,144.158135 271.867617,144.158135 295.384615,133.758676 L295.384615,133.758676 L295.384615,133.758676 C318.901614,123.359216 345.71377,123.359216 369.230769,133.758676 L372.885737,135.37494 L372.885737,135.37494 C394.37567,144.87801 418.525712,146.510113 441.098865,139.984904 L480,128.739775" id="Path-2" transform="translate(240.000000, 134.938621) rotate(-360.000000) translate(-240.000000, -134.938621) "></path>
                <path d="M0,115.799595 L0,115.799595 L2.13162821e-14,115.799595 C23.5169987,105.400135 50.3291551,105.400135 73.8461538,115.799595 L73.8461538,115.799595 L73.8461538,115.799595 C97.3631526,126.199055 124.175309,126.199055 147.692308,115.799595 L147.692308,115.799595 L147.692308,115.799595 C171.209306,105.400135 198.021463,105.400135 221.538462,115.799595 L221.538462,115.799595 L221.538462,115.799595 C245.05546,126.199055 271.867617,126.199055 295.384615,115.799595 L295.384615,115.799595 L295.384615,115.799595 C318.901614,105.400135 345.71377,105.400135 369.230769,115.799595 L372.885737,117.415859 L372.885737,117.415859 C394.37567,126.91893 418.525712,128.551032 441.098865,122.025824 L480,110.780694" id="Path-2-Copy" transform="translate(240.000000, 116.979540) rotate(-360.000000) translate(-240.000000, -116.979540) "></path>
                <path d="M0,97.7995948 L0,97.7995948 L2.13162821e-14,97.7995948 C23.5169987,87.4001351 50.3291551,87.4001351 73.8461538,97.7995948 L73.8461538,97.7995948 L73.8461538,97.7995948 C97.3631526,108.199055 124.175309,108.199055 147.692308,97.7995948 L147.692308,97.7995948 L147.692308,97.7995948 C171.209306,87.4001351 198.021463,87.4001351 221.538462,97.7995948 L221.538462,97.7995948 L221.538462,97.7995948 C245.05546,108.199055 271.867617,108.199055 295.384615,97.7995948 L295.384615,97.7995948 L295.384615,97.7995948 C318.901614,87.4001351 345.71377,87.4001351 369.230769,97.7995948 L372.885737,99.4158591 L372.885737,99.4158591 C394.37567,108.91893 418.525712,110.551032 441.098865,104.025824 L480,92.7806939" id="Path-2-Copy-2" transform="translate(240.000000, 98.979540) rotate(-360.000000) translate(-240.000000, -98.979540) "></path>
                <path d="M0,79.7995948 L0,79.7995948 L2.13162821e-14,79.7995948 C23.5169987,69.4001351 50.3291551,69.4001351 73.8461538,79.7995948 L73.8461538,79.7995948 L73.8461538,79.7995948 C97.3631526,90.1990546 124.175309,90.1990546 147.692308,79.7995948 L147.692308,79.7995948 L147.692308,79.7995948 C171.209306,69.4001351 198.021463,69.4001351 221.538462,79.7995948 L221.538462,79.7995948 L221.538462,79.7995948 C245.05546,90.1990546 271.867617,90.1990546 295.384615,79.7995948 L295.384615,79.7995948 L295.384615,79.7995948 C318.901614,69.4001351 345.71377,69.4001351 369.230769,79.7995948 L372.885737,81.4158591 L372.885737,81.4158591 C394.37567,90.9189295 418.525712,92.5510323 441.098865,86.0258235 L480,74.7806939" id="Path-2-Copy-3" transform="translate(240.000000, 80.979540) rotate(-360.000000) translate(-240.000000, -80.979540) "></path>
                <path d="M0,61.7995948 L0,61.7995948 L2.13162821e-14,61.7995948 C23.5169987,51.4001351 50.3291551,51.4001351 73.8461538,61.7995948 L73.8461538,61.7995948 L73.8461538,61.7995948 C97.3631526,72.1990546 124.175309,72.1990546 147.692308,61.7995948 L147.692308,61.7995948 L147.692308,61.7995948 C171.209306,51.4001351 198.021463,51.4001351 221.538462,61.7995948 L221.538462,61.7995948 L221.538462,61.7995948 C245.05546,72.1990546 271.867617,72.1990546 295.384615,61.7995948 L295.384615,61.7995948 L295.384615,61.7995948 C318.901614,51.4001351 345.71377,51.4001351 369.230769,61.7995948 L372.885737,63.4158591 L372.885737,63.4158591 C394.37567,72.9189295 418.525712,74.5510323 441.098865,68.0258235 L480,56.7806939" id="Path-2-Copy-4" transform="translate(240.000000, 62.979540) rotate(-360.000000) translate(-240.000000, -62.979540) "></path>
                <path d="M0,43.7995948 L0,43.7995948 L2.13162821e-14,43.7995948 C23.5169987,33.4001351 50.3291551,33.4001351 73.8461538,43.7995948 L73.8461538,43.7995948 L73.8461538,43.7995948 C97.3631526,54.1990546 124.175309,54.1990546 147.692308,43.7995948 L147.692308,43.7995948 L147.692308,43.7995948 C171.209306,33.4001351 198.021463,33.4001351 221.538462,43.7995948 L221.538462,43.7995948 L221.538462,43.7995948 C245.05546,54.1990546 271.867617,54.1990546 295.384615,43.7995948 L295.384615,43.7995948 L295.384615,43.7995948 C318.901614,33.4001351 345.71377,33.4001351 369.230769,43.7995948 L372.885737,45.4158591 L372.885737,45.4158591 C394.37567,54.9189295 418.525712,56.5510323 441.098865,50.0258235 L480,38.7806939" id="Path-2-Copy-5" transform="translate(240.000000, 44.979540) rotate(-360.000000) translate(-240.000000, -44.979540) "></path>
                <path d="M0,25.7995948 L0,25.7995948 L2.13162821e-14,25.7995948 C23.5169987,15.4001351 50.3291551,15.4001351 73.8461538,25.7995948 L73.8461538,25.7995948 L73.8461538,25.7995948 C97.3631526,36.1990546 124.175309,36.1990546 147.692308,25.7995948 L147.692308,25.7995948 L147.692308,25.7995948 C171.209306,15.4001351 198.021463,15.4001351 221.538462,25.7995948 L221.538462,25.7995948 L221.538462,25.7995948 C245.05546,36.1990546 271.867617,36.1990546 295.384615,25.7995948 L295.384615,25.7995948 L295.384615,25.7995948 C318.901614,15.4001351 345.71377,15.4001351 369.230769,25.7995948 L372.885737,27.4158591 L372.885737,27.4158591 C394.37567,36.9189295 418.525712,38.5510323 441.098865,32.0258235 L480,20.7806939" id="Path-2-Copy-6" transform="translate(240.000000, 26.979540) rotate(-360.000000) translate(-240.000000, -26.979540) "></path>
                <path d="M0,7.79959481 L0,7.79959481 L2.13162821e-14,7.79959481 C23.5169987,-2.59986494 50.3291551,-2.59986494 73.8461538,7.79959481 L73.8461538,7.79959481 L73.8461538,7.79959481 C97.3631526,18.1990546 124.175309,18.1990546 147.692308,7.79959481 L147.692308,7.79959481 L147.692308,7.79959481 C171.209306,-2.59986494 198.021463,-2.59986494 221.538462,7.79959481 L221.538462,7.79959481 L221.538462,7.79959481 C245.05546,18.1990546 271.867617,18.1990546 295.384615,7.79959481 L295.384615,7.79959481 L295.384615,7.79959481 C318.901614,-2.59986494 345.71377,-2.59986494 369.230769,7.79959481 L372.885737,9.41585914 L372.885737,9.41585914 C394.37567,18.9189295 418.525712,20.5510323 441.098865,14.0258235 L480,2.78069388" id="Path-2-Copy-7" transform="translate(240.000000, 8.979540) rotate(-360.000000) translate(-240.000000, -8.979540) "></path>
            </g>
        </g>
    </g>
</svg>